<svg xmlns="http://www.w3.org/2000/svg" viewBox="0 0 512 512">
  <rect width="512" height="512" rx="116" fill="#14171f"/>
  <rect x="14" y="14" width="484" height="484" rx="104" fill="none" stroke="#c27c60" stroke-width="12" opacity="0.85"/>
  <g transform="translate(256 256) scale(7.2) translate(-32 -33)">
    <ellipse cx="16" cy="15" rx="8.5" ry="8" fill="#f3ece2"/>
    <ellipse cx="48" cy="15" rx="8.5" ry="8" fill="#f3ece2"/>
    <path d="M5 30 Q5 11 24 11 L40 11 Q59 11 59 30 L59 43 Q59 59 40 59 L24 59 Q5 59 5 43 Z" fill="#f3ece2"/>
    <ellipse cx="32" cy="46" rx="20" ry="11" fill="#cdb09c"/>
    <ellipse cx="22" cy="32" rx="3.9" ry="4.5" fill="#2a2018"/>
    <ellipse cx="42" cy="32" rx="3.9" ry="4.5" fill="#2a2018"/>
    <ellipse cx="32" cy="47" rx="5.8" ry="3.7" fill="#2a2018"/>
  </g>
</svg>
